<svg width="60" height="60" xmlns="http://www.w3.org/2000/svg">
 <g>
  <title>Layer 1</title>
  <ellipse fill="#333333" cx="30" cy="30" id="svg_4" rx="30" ry="30"/>
  <g id="svg_12">
   <path stroke="null" id="svg_7" d="m28.14629,18.37674c0,3.20967 -2.64682,5.81163 -5.91183,5.81163m5.91183,-5.81163l0,0c0,3.20967 -2.64682,5.81163 -5.91183,5.81163c-3.26501,0 -5.91183,-2.60195 -5.91183,-5.81163m0,0l0,0c0,-3.20967 2.64682,-5.81163 5.91183,-5.81163c3.26501,0 5.91183,2.60196 5.91183,5.81163l0,23.24652c0,3.20967 -2.64682,5.81162 -5.91183,5.81162c-3.26501,0 -5.91183,-2.60195 -5.91183,-5.81162l0,-23.24652z" fill="#ffffff"/>
   <path stroke="null" id="svg_11" d="m43.67737,18.37674c0,3.20968 -2.64682,5.81163 -5.91183,5.81163m5.91183,-5.81163l0,0c0,3.20968 -2.64682,5.81163 -5.91183,5.81163c-3.26502,0 -5.91183,-2.60195 -5.91183,-5.81163m0,0l0,0c0,-3.20967 2.64681,-5.81162 5.91183,-5.81162c3.26501,0 5.91183,2.60195 5.91183,5.81162l0,23.24653c0,3.20967 -2.64682,5.81162 -5.91183,5.81162c-3.26502,0 -5.91183,-2.60195 -5.91183,-5.81162l0,-23.24653z" fill="#ffffff"/>
  </g>
 </g>

</svg>
