<svg width="59.99999999999999" height="59.99999999999999" xmlns="http://www.w3.org/2000/svg">
 <g>
  <title>Layer 1</title>
  <ellipse fill="#333333" cx="30" cy="30" id="svg_4" rx="30" ry="30"/>
  <g id="svg_6">
   <path transform="rotate(90 32.5291 30)" stroke="null" id="svg_1" d="m48.257,40.413l-4.3159,-7.50728c-1.30123,-2.26267 -3.42957,-5.96685 -4.7308,-8.22997l-4.3155,-7.50683c-1.30252,-2.264 -3.43086,-2.264 -4.73165,0l-4.31463,7.50683c-1.30123,2.26311 -3.43086,5.96815 -4.73166,8.22997l-4.31507,7.50728c-1.30123,2.26486 -0.23619,4.11607 2.36584,4.11607l26.72096,0c2.60462,0 3.66834,-1.85121 2.36842,-4.11607l0,0zm-14.49566,1.16219l-2.55975,0l0,-2.46841l2.55975,0l0,2.46841zm-0.12332,-4.28722l-2.31092,0l-0.22966,-10.5614l2.74974,0l-0.20916,10.5614l0,0z" fill="#e5e5e5"/>
   <rect id="svg_5" height="10.12025" width="17.03408" y="23.62908" x="20.00413" stroke="null" fill="#e5e5e5"/>
  </g>
 </g>

</svg>